<?xml version="1.0" encoding="UTF-8" standalone="no"?>
<!DOCTYPE svg PUBLIC "-//W3C//DTD SVG 1.0//EN" "http://www.w3.org/TR/2001/PR-SVG-20010719/DTD/svg10.dtd">
<svg width="61cm" height="17cm" viewBox="56 -6 1215 324" xmlns="http://www.w3.org/2000/svg" xmlns:xlink="http://www.w3.org/1999/xlink">
  <g>
    <rect style="fill: #d4d4fb" x="57" y="15.5" width="1213" height="301"/>
    <rect style="fill: none; fill-opacity:0; stroke-width: 2; stroke: #000000" x="57" y="15.5" width="1213" height="301"/>
    <rect style="fill: #d4d4fb" x="57" y="-4.5" width="57.9" height="20"/>
    <rect style="fill: none; fill-opacity:0; stroke-width: 2; stroke: #000000" x="57" y="-4.5" width="57.9" height="20"/>
    <text style="fill: #000000;text-anchor:start;font-size:12.7998;font-family:monospace;font-style:normal;font-weight:normal" x="59" y="10.5">Package</text>
  </g>
  <g>
    <rect style="fill: #bbbbff" x="77.5" y="108.8" width="571.5" height="197.7"/>
    <rect style="fill: none; fill-opacity:0; stroke-width: 2; stroke: #000000" x="77.5" y="108.8" width="571.5" height="197.7"/>
    <rect style="fill: #bbbbff" x="77.5" y="88.8" width="73.3" height="20"/>
    <rect style="fill: none; fill-opacity:0; stroke-width: 2; stroke: #000000" x="77.5" y="88.8" width="73.3" height="20"/>
    <text style="fill: #000000;text-anchor:start;font-size:12.7998;font-family:monospace;font-style:normal;font-weight:normal" x="79.5" y="103.8">Package.p</text>
  </g>
  <g>
    <rect style="fill: #bbbbff" x="669" y="99.5" width="585" height="211"/>
    <rect style="fill: none; fill-opacity:0; stroke-width: 2; stroke: #000000" x="669" y="99.5" width="585" height="211"/>
    <rect style="fill: #bbbbff" x="669" y="79.5" width="73.3" height="20"/>
    <rect style="fill: none; fill-opacity:0; stroke-width: 2; stroke: #000000" x="669" y="79.5" width="73.3" height="20"/>
    <text style="fill: #000000;text-anchor:start;font-size:12.7998;font-family:monospace;font-style:normal;font-weight:normal" x="671" y="94.5">Package.q</text>
  </g>
  <g>
    <rect style="fill: #aaaaed" x="87" y="203" width="277" height="82"/>
    <rect style="fill: none; fill-opacity:0; stroke-width: 2; stroke: #000000" x="87" y="203" width="277" height="82"/>
    <rect style="fill: #aaaaed" x="87" y="183" width="88.7" height="20"/>
    <rect style="fill: none; fill-opacity:0; stroke-width: 2; stroke: #000000" x="87" y="183" width="88.7" height="20"/>
    <text style="fill: #000000;text-anchor:start;font-size:12.7998;font-family:monospace;font-style:normal;font-weight:normal" x="89" y="198">Package.p.p</text>
  </g>
  <g>
    <rect style="fill: #aaaaed" x="374" y="210" width="266" height="76.5"/>
    <rect style="fill: none; fill-opacity:0; stroke-width: 2; stroke: #000000" x="374" y="210" width="266" height="76.5"/>
    <rect style="fill: #aaaaed" x="374" y="190" width="88.7" height="20"/>
    <rect style="fill: none; fill-opacity:0; stroke-width: 2; stroke: #000000" x="374" y="190" width="88.7" height="20"/>
    <text style="fill: #000000;text-anchor:start;font-size:12.7998;font-family:monospace;font-style:normal;font-weight:normal" x="376" y="205">Package.p.q</text>
  </g>
  <g>
    <rect style="fill: #aaaaed" x="693.5" y="187.5" width="256.5" height="96"/>
    <rect style="fill: none; fill-opacity:0; stroke-width: 2; stroke: #000000" x="693.5" y="187.5" width="256.5" height="96"/>
    <rect style="fill: #aaaaed" x="693.5" y="167.5" width="88.7" height="20"/>
    <rect style="fill: none; fill-opacity:0; stroke-width: 2; stroke: #000000" x="693.5" y="167.5" width="88.7" height="20"/>
    <text style="fill: #000000;text-anchor:start;font-size:12.7998;font-family:monospace;font-style:normal;font-weight:normal" x="695.5" y="182.5">Package.q.p</text>
  </g>
  <g>
    <rect style="fill: #aaaaed" x="973" y="211.5" width="268" height="89"/>
    <rect style="fill: none; fill-opacity:0; stroke-width: 2; stroke: #000000" x="973" y="211.5" width="268" height="89"/>
    <rect style="fill: #aaaaed" x="973" y="191.5" width="88.7" height="20"/>
    <rect style="fill: none; fill-opacity:0; stroke-width: 2; stroke: #000000" x="973" y="191.5" width="88.7" height="20"/>
    <text style="fill: #000000;text-anchor:start;font-size:12.7998;font-family:monospace;font-style:normal;font-weight:normal" x="975" y="206.5">Package.q.q</text>
  </g>
  <g>
    <rect style="fill: #f9d50e" x="566" y="223" width="57.05" height="28"/>
    <rect style="fill: none; fill-opacity:0; stroke-width: 2; stroke: #000000" x="566" y="223" width="57.05" height="28"/>
    <text style="fill: #000000;text-anchor:middle;font-size:16;font-family:sanserif;font-style:normal;font-weight:700" x="594.525" y="242">Class</text>
    <rect style="fill: #f9d50e" x="566" y="251" width="57.05" height="8"/>
    <rect style="fill: none; fill-opacity:0; stroke-width: 2; stroke: #000000" x="566" y="251" width="57.05" height="8"/>
    <rect style="fill: #f9d50e" x="566" y="259" width="57.05" height="8"/>
    <rect style="fill: none; fill-opacity:0; stroke-width: 2; stroke: #000000" x="566" y="259" width="57.05" height="8"/>
  </g>
  <g>
    <rect style="fill: #9aeb1e" x="381" y="220" width="110.1" height="44"/>
    <rect style="fill: none; fill-opacity:0; stroke-width: 2; stroke: #000000" x="381" y="220" width="110.1" height="44"/>
    <text style="fill: #000000;text-anchor:middle;font-size:12.8;font-family:monospace;font-style:normal;font-weight:normal" x="436.05" y="236">&lt;&lt;interface&gt;&gt;</text>
    <text style="fill: #000000;text-anchor:middle;font-size:16;font-family:sanserif;font-style:normal;font-weight:normal" x="436.05" y="255">Interface</text>
    <rect style="fill: #9aeb1e" x="381" y="264" width="110.1" height="8"/>
    <rect style="fill: none; fill-opacity:0; stroke-width: 2; stroke: #000000" x="381" y="264" width="110.1" height="8"/>
    <rect style="fill: #9aeb1e" x="381" y="272" width="110.1" height="8"/>
    <rect style="fill: none; fill-opacity:0; stroke-width: 2; stroke: #000000" x="381" y="272" width="110.1" height="8"/>
  </g>
  <g>
    <rect style="fill: #f9d50e" x="499.5" y="222.6" width="57.05" height="28"/>
    <rect style="fill: none; fill-opacity:0; stroke-width: 2; stroke: #000000" x="499.5" y="222.6" width="57.05" height="28"/>
    <text style="fill: #000000;text-anchor:middle;font-size:16;font-family:sanserif;font-style:normal;font-weight:700" x="528.025" y="241.6">Class</text>
    <rect style="fill: #f9d50e" x="499.5" y="250.6" width="57.05" height="8"/>
    <rect style="fill: none; fill-opacity:0; stroke-width: 2; stroke: #000000" x="499.5" y="250.6" width="57.05" height="8"/>
    <rect style="fill: #f9d50e" x="499.5" y="258.6" width="57.05" height="8"/>
    <rect style="fill: none; fill-opacity:0; stroke-width: 2; stroke: #000000" x="499.5" y="258.6" width="57.05" height="8"/>
  </g>
  <g>
    <rect style="fill: #f9d50e" x="293" y="221.2" width="57.05" height="28"/>
    <rect style="fill: none; fill-opacity:0; stroke-width: 2; stroke: #000000" x="293" y="221.2" width="57.05" height="28"/>
    <text style="fill: #000000;text-anchor:middle;font-size:16;font-family:sanserif;font-style:normal;font-weight:700" x="321.525" y="240.2">Class</text>
    <rect style="fill: #f9d50e" x="293" y="249.2" width="57.05" height="8"/>
    <rect style="fill: none; fill-opacity:0; stroke-width: 2; stroke: #000000" x="293" y="249.2" width="57.05" height="8"/>
    <rect style="fill: #f9d50e" x="293" y="257.2" width="57.05" height="8"/>
    <rect style="fill: none; fill-opacity:0; stroke-width: 2; stroke: #000000" x="293" y="257.2" width="57.05" height="8"/>
  </g>
  <g>
    <rect style="fill: #f9d50e" x="214.5" y="221.8" width="57.05" height="28"/>
    <rect style="fill: none; fill-opacity:0; stroke-width: 2; stroke: #000000" x="214.5" y="221.8" width="57.05" height="28"/>
    <text style="fill: #000000;text-anchor:middle;font-size:16;font-family:sanserif;font-style:normal;font-weight:700" x="243.025" y="240.8">Class</text>
    <rect style="fill: #f9d50e" x="214.5" y="249.8" width="57.05" height="8"/>
    <rect style="fill: none; fill-opacity:0; stroke-width: 2; stroke: #000000" x="214.5" y="249.8" width="57.05" height="8"/>
    <rect style="fill: #f9d50e" x="214.5" y="257.8" width="57.05" height="8"/>
    <rect style="fill: none; fill-opacity:0; stroke-width: 2; stroke: #000000" x="214.5" y="257.8" width="57.05" height="8"/>
  </g>
  <g>
    <rect style="fill: #f9d50e" x="1105" y="246.4" width="57.05" height="28"/>
    <rect style="fill: none; fill-opacity:0; stroke-width: 2; stroke: #000000" x="1105" y="246.4" width="57.05" height="28"/>
    <text style="fill: #000000;text-anchor:middle;font-size:16;font-family:sanserif;font-style:normal;font-weight:700" x="1133.53" y="265.4">Class</text>
    <rect style="fill: #f9d50e" x="1105" y="274.4" width="57.05" height="8"/>
    <rect style="fill: none; fill-opacity:0; stroke-width: 2; stroke: #000000" x="1105" y="274.4" width="57.05" height="8"/>
    <rect style="fill: #f9d50e" x="1105" y="282.4" width="57.05" height="8"/>
    <rect style="fill: none; fill-opacity:0; stroke-width: 2; stroke: #000000" x="1105" y="282.4" width="57.05" height="8"/>
  </g>
  <g>
    <rect style="fill: #f9d50e" x="457.5" y="136" width="57.05" height="28"/>
    <rect style="fill: none; fill-opacity:0; stroke-width: 2; stroke: #000000" x="457.5" y="136" width="57.05" height="28"/>
    <text style="fill: #000000;text-anchor:middle;font-size:16;font-family:sanserif;font-style:normal;font-weight:700" x="486.025" y="155">Class</text>
    <rect style="fill: #f9d50e" x="457.5" y="164" width="57.05" height="8"/>
    <rect style="fill: none; fill-opacity:0; stroke-width: 2; stroke: #000000" x="457.5" y="164" width="57.05" height="8"/>
    <rect style="fill: #f9d50e" x="457.5" y="172" width="57.05" height="8"/>
    <rect style="fill: none; fill-opacity:0; stroke-width: 2; stroke: #000000" x="457.5" y="172" width="57.05" height="8"/>
  </g>
  <g>
    <rect style="fill: #f9d50e" x="389" y="135.6" width="57.05" height="28"/>
    <rect style="fill: none; fill-opacity:0; stroke-width: 2; stroke: #000000" x="389" y="135.6" width="57.05" height="28"/>
    <text style="fill: #000000;text-anchor:middle;font-size:16;font-family:sanserif;font-style:normal;font-weight:700" x="417.525" y="154.6">Class</text>
    <rect style="fill: #f9d50e" x="389" y="163.6" width="57.05" height="8"/>
    <rect style="fill: none; fill-opacity:0; stroke-width: 2; stroke: #000000" x="389" y="163.6" width="57.05" height="8"/>
    <rect style="fill: #f9d50e" x="389" y="171.6" width="57.05" height="8"/>
    <rect style="fill: none; fill-opacity:0; stroke-width: 2; stroke: #000000" x="389" y="171.6" width="57.05" height="8"/>
  </g>
  <g>
    <rect style="fill: #9aeb1e" x="230.5" y="134.6" width="110.1" height="44"/>
    <rect style="fill: none; fill-opacity:0; stroke-width: 2; stroke: #000000" x="230.5" y="134.6" width="110.1" height="44"/>
    <text style="fill: #000000;text-anchor:middle;font-size:12.8;font-family:monospace;font-style:normal;font-weight:normal" x="285.55" y="150.6">&lt;&lt;interface&gt;&gt;</text>
    <text style="fill: #000000;text-anchor:middle;font-size:16;font-family:sanserif;font-style:normal;font-weight:normal" x="285.55" y="169.6">Interface</text>
    <rect style="fill: #9aeb1e" x="230.5" y="178.6" width="110.1" height="8"/>
    <rect style="fill: none; fill-opacity:0; stroke-width: 2; stroke: #000000" x="230.5" y="178.6" width="110.1" height="8"/>
    <rect style="fill: #9aeb1e" x="230.5" y="186.6" width="110.1" height="8"/>
    <rect style="fill: none; fill-opacity:0; stroke-width: 2; stroke: #000000" x="230.5" y="186.6" width="110.1" height="8"/>
  </g>
  <g>
    <rect style="fill: #9aeb1e" x="101" y="213.2" width="110.1" height="44"/>
    <rect style="fill: none; fill-opacity:0; stroke-width: 2; stroke: #000000" x="101" y="213.2" width="110.1" height="44"/>
    <text style="fill: #000000;text-anchor:middle;font-size:12.8;font-family:monospace;font-style:normal;font-weight:normal" x="156.05" y="229.2">&lt;&lt;interface&gt;&gt;</text>
    <text style="fill: #000000;text-anchor:middle;font-size:16;font-family:sanserif;font-style:normal;font-weight:normal" x="156.05" y="248.2">Interface</text>
    <rect style="fill: #9aeb1e" x="101" y="257.2" width="110.1" height="8"/>
    <rect style="fill: none; fill-opacity:0; stroke-width: 2; stroke: #000000" x="101" y="257.2" width="110.1" height="8"/>
    <rect style="fill: #9aeb1e" x="101" y="265.2" width="110.1" height="8"/>
    <rect style="fill: none; fill-opacity:0; stroke-width: 2; stroke: #000000" x="101" y="265.2" width="110.1" height="8"/>
  </g>
  <g>
    <rect style="fill: #9aeb1e" x="985.5" y="234.8" width="110.1" height="44"/>
    <rect style="fill: none; fill-opacity:0; stroke-width: 2; stroke: #000000" x="985.5" y="234.8" width="110.1" height="44"/>
    <text style="fill: #000000;text-anchor:middle;font-size:12.8;font-family:monospace;font-style:normal;font-weight:normal" x="1040.55" y="250.8">&lt;&lt;interface&gt;&gt;</text>
    <text style="fill: #000000;text-anchor:middle;font-size:16;font-family:sanserif;font-style:normal;font-weight:normal" x="1040.55" y="269.8">Interface</text>
    <rect style="fill: #9aeb1e" x="985.5" y="278.8" width="110.1" height="8"/>
    <rect style="fill: none; fill-opacity:0; stroke-width: 2; stroke: #000000" x="985.5" y="278.8" width="110.1" height="8"/>
    <rect style="fill: #9aeb1e" x="985.5" y="286.8" width="110.1" height="8"/>
    <rect style="fill: none; fill-opacity:0; stroke-width: 2; stroke: #000000" x="985.5" y="286.8" width="110.1" height="8"/>
  </g>
  <g>
    <rect style="fill: #f9d50e" x="1170.5" y="246.6" width="57.05" height="28"/>
    <rect style="fill: none; fill-opacity:0; stroke-width: 2; stroke: #000000" x="1170.5" y="246.6" width="57.05" height="28"/>
    <text style="fill: #000000;text-anchor:middle;font-size:16;font-family:sanserif;font-style:normal;font-weight:700" x="1199.03" y="265.6">Class</text>
    <rect style="fill: #f9d50e" x="1170.5" y="274.6" width="57.05" height="8"/>
    <rect style="fill: none; fill-opacity:0; stroke-width: 2; stroke: #000000" x="1170.5" y="274.6" width="57.05" height="8"/>
    <rect style="fill: #f9d50e" x="1170.5" y="282.6" width="57.05" height="8"/>
    <rect style="fill: none; fill-opacity:0; stroke-width: 2; stroke: #000000" x="1170.5" y="282.6" width="57.05" height="8"/>
  </g>
  <g>
    <rect style="fill: #f9d50e" x="885.5" y="224.2" width="57.05" height="28"/>
    <rect style="fill: none; fill-opacity:0; stroke-width: 2; stroke: #000000" x="885.5" y="224.2" width="57.05" height="28"/>
    <text style="fill: #000000;text-anchor:middle;font-size:16;font-family:sanserif;font-style:normal;font-weight:700" x="914.025" y="243.2">Class</text>
    <rect style="fill: #f9d50e" x="885.5" y="252.2" width="57.05" height="8"/>
    <rect style="fill: none; fill-opacity:0; stroke-width: 2; stroke: #000000" x="885.5" y="252.2" width="57.05" height="8"/>
    <rect style="fill: #f9d50e" x="885.5" y="260.2" width="57.05" height="8"/>
    <rect style="fill: none; fill-opacity:0; stroke-width: 2; stroke: #000000" x="885.5" y="260.2" width="57.05" height="8"/>
  </g>
  <g>
    <rect style="fill: #9aeb1e" x="703" y="215.6" width="110.1" height="44"/>
    <rect style="fill: none; fill-opacity:0; stroke-width: 2; stroke: #000000" x="703" y="215.6" width="110.1" height="44"/>
    <text style="fill: #000000;text-anchor:middle;font-size:12.8;font-family:monospace;font-style:normal;font-weight:normal" x="758.05" y="231.6">&lt;&lt;interface&gt;&gt;</text>
    <text style="fill: #000000;text-anchor:middle;font-size:16;font-family:sanserif;font-style:normal;font-weight:normal" x="758.05" y="250.6">Interface</text>
    <rect style="fill: #9aeb1e" x="703" y="259.6" width="110.1" height="8"/>
    <rect style="fill: none; fill-opacity:0; stroke-width: 2; stroke: #000000" x="703" y="259.6" width="110.1" height="8"/>
    <rect style="fill: #9aeb1e" x="703" y="267.6" width="110.1" height="8"/>
    <rect style="fill: none; fill-opacity:0; stroke-width: 2; stroke: #000000" x="703" y="267.6" width="110.1" height="8"/>
  </g>
  <g>
    <rect style="fill: #f9d50e" x="820" y="224.4" width="57.05" height="28"/>
    <rect style="fill: none; fill-opacity:0; stroke-width: 2; stroke: #000000" x="820" y="224.4" width="57.05" height="28"/>
    <text style="fill: #000000;text-anchor:middle;font-size:16;font-family:sanserif;font-style:normal;font-weight:700" x="848.525" y="243.4">Class</text>
    <rect style="fill: #f9d50e" x="820" y="252.4" width="57.05" height="8"/>
    <rect style="fill: none; fill-opacity:0; stroke-width: 2; stroke: #000000" x="820" y="252.4" width="57.05" height="8"/>
    <rect style="fill: #f9d50e" x="820" y="260.4" width="57.05" height="8"/>
    <rect style="fill: none; fill-opacity:0; stroke-width: 2; stroke: #000000" x="820" y="260.4" width="57.05" height="8"/>
  </g>
  <g>
    <rect style="fill: #f9d50e" x="1067" y="121.8" width="57.05" height="28"/>
    <rect style="fill: none; fill-opacity:0; stroke-width: 2; stroke: #000000" x="1067" y="121.8" width="57.05" height="28"/>
    <text style="fill: #000000;text-anchor:middle;font-size:16;font-family:sanserif;font-style:normal;font-weight:700" x="1095.53" y="140.8">Class</text>
    <rect style="fill: #f9d50e" x="1067" y="149.8" width="57.05" height="8"/>
    <rect style="fill: none; fill-opacity:0; stroke-width: 2; stroke: #000000" x="1067" y="149.8" width="57.05" height="8"/>
    <rect style="fill: #f9d50e" x="1067" y="157.8" width="57.05" height="8"/>
    <rect style="fill: none; fill-opacity:0; stroke-width: 2; stroke: #000000" x="1067" y="157.8" width="57.05" height="8"/>
  </g>
  <g>
    <rect style="fill: #9aeb1e" x="836.5" y="121.2" width="110.1" height="44"/>
    <rect style="fill: none; fill-opacity:0; stroke-width: 2; stroke: #000000" x="836.5" y="121.2" width="110.1" height="44"/>
    <text style="fill: #000000;text-anchor:middle;font-size:12.8;font-family:monospace;font-style:normal;font-weight:normal" x="891.55" y="137.2">&lt;&lt;interface&gt;&gt;</text>
    <text style="fill: #000000;text-anchor:middle;font-size:16;font-family:sanserif;font-style:normal;font-weight:normal" x="891.55" y="156.2">Interface</text>
    <rect style="fill: #9aeb1e" x="836.5" y="165.2" width="110.1" height="8"/>
    <rect style="fill: none; fill-opacity:0; stroke-width: 2; stroke: #000000" x="836.5" y="165.2" width="110.1" height="8"/>
    <rect style="fill: #9aeb1e" x="836.5" y="173.2" width="110.1" height="8"/>
    <rect style="fill: none; fill-opacity:0; stroke-width: 2; stroke: #000000" x="836.5" y="173.2" width="110.1" height="8"/>
  </g>
  <g>
    <rect style="fill: #f9d50e" x="993.5" y="119" width="57.05" height="28"/>
    <rect style="fill: none; fill-opacity:0; stroke-width: 2; stroke: #000000" x="993.5" y="119" width="57.05" height="28"/>
    <text style="fill: #000000;text-anchor:middle;font-size:16;font-family:sanserif;font-style:normal;font-weight:700" x="1022.03" y="138">Class</text>
    <rect style="fill: #f9d50e" x="993.5" y="147" width="57.05" height="8"/>
    <rect style="fill: none; fill-opacity:0; stroke-width: 2; stroke: #000000" x="993.5" y="147" width="57.05" height="8"/>
    <rect style="fill: #f9d50e" x="993.5" y="155" width="57.05" height="8"/>
    <rect style="fill: none; fill-opacity:0; stroke-width: 2; stroke: #000000" x="993.5" y="155" width="57.05" height="8"/>
  </g>
  <g>
    <rect style="fill: #f9d50e" x="746.5" y="40.5" width="57.05" height="28"/>
    <rect style="fill: none; fill-opacity:0; stroke-width: 2; stroke: #000000" x="746.5" y="40.5" width="57.05" height="28"/>
    <text style="fill: #000000;text-anchor:middle;font-size:16;font-family:sanserif;font-style:normal;font-weight:700" x="775.025" y="59.5">Class</text>
    <rect style="fill: #f9d50e" x="746.5" y="68.5" width="57.05" height="8"/>
    <rect style="fill: none; fill-opacity:0; stroke-width: 2; stroke: #000000" x="746.5" y="68.5" width="57.05" height="8"/>
    <rect style="fill: #f9d50e" x="746.5" y="76.5" width="57.05" height="8"/>
    <rect style="fill: none; fill-opacity:0; stroke-width: 2; stroke: #000000" x="746.5" y="76.5" width="57.05" height="8"/>
  </g>
  <g>
    <rect style="fill: #f9d50e" x="586" y="36.1" width="57.05" height="28"/>
    <rect style="fill: none; fill-opacity:0; stroke-width: 2; stroke: #000000" x="586" y="36.1" width="57.05" height="28"/>
    <text style="fill: #000000;text-anchor:middle;font-size:16;font-family:sanserif;font-style:normal;font-weight:700" x="614.525" y="55.1">Class</text>
    <rect style="fill: #f9d50e" x="586" y="64.1" width="57.05" height="8"/>
    <rect style="fill: none; fill-opacity:0; stroke-width: 2; stroke: #000000" x="586" y="64.1" width="57.05" height="8"/>
    <rect style="fill: #f9d50e" x="586" y="72.1" width="57.05" height="8"/>
    <rect style="fill: none; fill-opacity:0; stroke-width: 2; stroke: #000000" x="586" y="72.1" width="57.05" height="8"/>
  </g>
  <g>
    <rect style="fill: #9aeb1e" x="240.5" y="24.1" width="110.1" height="44"/>
    <rect style="fill: none; fill-opacity:0; stroke-width: 2; stroke: #000000" x="240.5" y="24.1" width="110.1" height="44"/>
    <text style="fill: #000000;text-anchor:middle;font-size:12.8;font-family:monospace;font-style:normal;font-weight:normal" x="295.55" y="40.1">&lt;&lt;interface&gt;&gt;</text>
    <text style="fill: #000000;text-anchor:middle;font-size:16;font-family:sanserif;font-style:normal;font-weight:normal" x="295.55" y="59.1">Interface</text>
    <rect style="fill: #9aeb1e" x="240.5" y="68.1" width="110.1" height="8"/>
    <rect style="fill: none; fill-opacity:0; stroke-width: 2; stroke: #000000" x="240.5" y="68.1" width="110.1" height="8"/>
    <rect style="fill: #9aeb1e" x="240.5" y="76.1" width="110.1" height="8"/>
    <rect style="fill: none; fill-opacity:0; stroke-width: 2; stroke: #000000" x="240.5" y="76.1" width="110.1" height="8"/>
  </g>
  <g>
    <polyline style="fill: none; fill-opacity:0; stroke-width: 2; stroke: #000000" points="614.525,81.1056 614.525,152.753 820,152.753 820,224.4 "/>
    <text style="fill: #000000;text-anchor:middle;font-size:12.7998;font-family:monospace;font-style:normal;font-weight:normal" x="717.262" y="149.753"></text>
    <text style="fill: #000000;text-anchor:start;font-size:12.7998;font-family:monospace;font-style:normal;font-weight:normal" x="618.525" y="93.1056"></text>
    <text style="fill: #000000;text-anchor:start;font-size:12.7998;font-family:monospace;font-style:normal;font-weight:normal" x="824" y="220.4"></text>
  </g>
  <g>
    <polyline style="fill: none; fill-opacity:0; stroke-width: 2; stroke: #ff0000" points="486.025,180.935 486.024,196.5 914.026,196.5 914.026,224.2 "/>
    <text style="fill: #000000;text-anchor:middle;font-size:12.7998;font-family:monospace;font-style:normal;font-weight:normal" x="700.025" y="193.5"></text>
    <text style="fill: #000000;text-anchor:start;font-size:12.7998;font-family:monospace;font-style:normal;font-weight:normal" x="490.025" y="192.935"></text>
    <text style="fill: #000000;text-anchor:start;font-size:12.7998;font-family:monospace;font-style:normal;font-weight:normal" x="918.026" y="220.2"></text>
  </g>
  <line style="fill: none; fill-opacity:0; stroke-width: 6; stroke: #ff0000" x1="639.394" y1="178.007" x2="681" y2="215.5"/>
  <line style="fill: none; fill-opacity:0; stroke-width: 6; stroke: #ff0000" x1="640" y1="210" x2="678" y2="177.5"/>
  <g>
    <polyline style="fill: none; fill-opacity:0; stroke-width: 2; stroke: #000000" points="272.559,243.8 286.776,243.8 286.776,243.2 291.993,243.2 "/>
    <text style="fill: #000000;text-anchor:start;font-size:12.7998;font-family:monospace;font-style:normal;font-weight:normal" x="288.776" y="240.5"></text>
    <text style="fill: #000000;text-anchor:start;font-size:12.7998;font-family:monospace;font-style:normal;font-weight:normal" x="276.559" y="240.8"></text>
    <text style="fill: #000000;text-anchor:end;font-size:12.7998;font-family:monospace;font-style:normal;font-weight:normal" x="287.993" y="240.2"></text>
  </g>
  <g>
    <polyline style="fill: none; fill-opacity:0; stroke-width: 2; stroke: #000000" points="594.525,293.177 594.525,299.5 556.55,299.5 556.55,266.6 "/>
    <polygon style="fill: #000000" points="594.525,268.005 599.325,282.005 594.525,296.005 589.725,282.005 "/>
    <polygon style="fill: none; fill-opacity:0; stroke-width: 2; stroke: #000000" points="594.525,268.005 599.325,282.005 594.525,296.005 589.725,282.005 "/>
    <text style="fill: #000000;text-anchor:middle;font-size:12.7998;font-family:monospace;font-style:normal;font-weight:normal" x="575.538" y="296.5"></text>
    <text style="fill: #000000;text-anchor:start;font-size:12.7998;font-family:monospace;font-style:normal;font-weight:normal" x="605.525" y="280.005"></text>
    <text style="fill: #000000;text-anchor:start;font-size:12.7998;font-family:monospace;font-style:normal;font-weight:normal" x="560.55" y="278.6"></text>
  </g>
  <g>
    <polyline style="fill: none; fill-opacity:0; stroke-width: 2; stroke: #000000" points="1022.02,163 1022.02,186.5 1133.53,186.5 1133.53,243.928 "/>
    <polyline style="fill: none; fill-opacity:0; stroke-width: 2; stroke: #000000" points="1125.53,230.164 1133.53,246.164 1141.53,230.164 "/>
    <text style="fill: #000000;text-anchor:middle;font-size:12.7998;font-family:monospace;font-style:normal;font-weight:normal" x="1077.78" y="183.5"></text>
    <text style="fill: #000000;text-anchor:start;font-size:12.7998;font-family:monospace;font-style:normal;font-weight:normal" x="1026.02" y="175"></text>
    <text style="fill: #000000;text-anchor:start;font-size:12.7998;font-family:monospace;font-style:normal;font-weight:normal" x="1144.53" y="244.4"></text>
  </g>
  <g>
    <polyline style="fill: none; fill-opacity:0; stroke-width: 2; stroke: #000000" points="968.328,133 959,133 959,238.2 942.55,238.2 "/>
    <polygon style="fill: #000000" points="993.5,133 979.5,137.8 965.5,133 979.5,128.2 "/>
    <polygon style="fill: none; fill-opacity:0; stroke-width: 2; stroke: #000000" points="993.5,133 979.5,137.8 965.5,133 979.5,128.2 "/>
    <text style="fill: #000000;text-anchor:start;font-size:12.7998;font-family:monospace;font-style:normal;font-weight:normal" x="961" y="182.6"></text>
    <text style="fill: #000000;text-anchor:end;font-size:12.7998;font-family:monospace;font-style:normal;font-weight:normal" x="961.5" y="130"></text>
    <text style="fill: #000000;text-anchor:start;font-size:12.7998;font-family:monospace;font-style:normal;font-weight:normal" x="946.55" y="235.2"></text>
  </g>
  <g>
    <polyline style="fill: none; fill-opacity:0; stroke-width: 2; stroke: #000000" points="560.828,50.1 549,50.1 549,158 518.03,158 "/>
    <polygon style="fill: #000000" points="586,50.1 572,54.9 558,50.1 572,45.3 "/>
    <polygon style="fill: none; fill-opacity:0; stroke-width: 2; stroke: #000000" points="586,50.1 572,54.9 558,50.1 572,45.3 "/>
    <polyline style="fill: none; fill-opacity:0; stroke-width: 2; stroke: #000000" points="531.794,150 515.794,158 531.794,166 "/>
    <text style="fill: #000000;text-anchor:start;font-size:12.7998;font-family:monospace;font-style:normal;font-weight:normal" x="551" y="101.05"></text>
    <text style="fill: #000000;text-anchor:end;font-size:12.7998;font-family:monospace;font-style:normal;font-weight:normal" x="554" y="47.1"></text>
    <text style="fill: #000000;text-anchor:start;font-size:12.7998;font-family:monospace;font-style:normal;font-weight:normal" x="533.558" y="155"></text>
  </g>
  <g>
    <polyline style="fill: none; fill-opacity:0; stroke-width: 2; stroke: #000000" points="295.55,88.5721 295.55,123.5 417.526,123.5 417.526,135.6 "/>
    <polyline style="fill: none; fill-opacity:0; stroke-width: 2; stroke: #000000" points="303.55,102.336 295.55,86.3361 287.55,102.336 "/>
    <text style="fill: #000000;text-anchor:middle;font-size:12.7998;font-family:monospace;font-style:normal;font-weight:normal" x="356.538" y="120.5"></text>
    <text style="fill: #000000;text-anchor:start;font-size:12.7998;font-family:monospace;font-style:normal;font-weight:normal" x="306.55" y="96.1"></text>
    <text style="fill: #000000;text-anchor:start;font-size:12.7998;font-family:monospace;font-style:normal;font-weight:normal" x="421.526" y="131.6"></text>
  </g>
  <g>
    <polyline style="fill: none; fill-opacity:0; stroke-width: 2; stroke: #ff0000" points="229.493,164.6 209.493,164.6 209.493,46.1 240.5,46.1 "/>
    <text style="fill: #000000;text-anchor:start;font-size:12.7998;font-family:monospace;font-style:normal;font-weight:normal" x="211.493" y="102.35"></text>
    <text style="fill: #000000;text-anchor:end;font-size:12.7998;font-family:monospace;font-style:normal;font-weight:normal" x="225.493" y="161.6"></text>
    <text style="fill: #000000;text-anchor:end;font-size:12.7998;font-family:monospace;font-style:normal;font-weight:normal" x="236.5" y="43.1"></text>
  </g>
  <line style="fill: none; fill-opacity:0; stroke-width: 6; stroke: #ff0000" x1="193" y1="123.5" x2="221" y2="94.5"/>
  <line style="fill: none; fill-opacity:0; stroke-width: 6; stroke: #ff0000" x1="193.73" y1="90.3302" x2="223" y2="123.5"/>
  <g>
    <polyline style="fill: none; fill-opacity:0; stroke-width: 2; stroke: #000000" points="1095.53,190.972 1095.53,202.5 1095.6,202.5 1095.6,232.328 "/>
    <polygon style="fill: #ffffff" points="1095.53,165.8 1100.33,179.8 1095.53,193.8 1090.73,179.8 "/>
    <polygon style="fill: none; fill-opacity:0; stroke-width: 2; stroke: #000000" points="1095.53,165.8 1100.33,179.8 1095.53,193.8 1090.73,179.8 "/>
    <polyline style="fill: none; fill-opacity:0; stroke-width: 2; stroke: #000000" points="1087.6,218.564 1095.6,234.564 1103.6,218.564 "/>
    <text style="fill: #000000;text-anchor:middle;font-size:12.7998;font-family:monospace;font-style:normal;font-weight:normal" x="1095.56" y="199.5"></text>
    <text style="fill: #000000;text-anchor:start;font-size:12.7998;font-family:monospace;font-style:normal;font-weight:normal" x="1106.53" y="177.8"></text>
    <text style="fill: #000000;text-anchor:start;font-size:12.7998;font-family:monospace;font-style:normal;font-weight:normal" x="1106.6" y="232.8"></text>
  </g>
  <g>
    <polyline style="fill: none; fill-opacity:0; stroke-width: 2; stroke: #ff0000" points="624.03,245 661,245 661,245.6 702.014,245.6 "/>
    <text style="fill: #000000;text-anchor:start;font-size:12.7998;font-family:monospace;font-style:normal;font-weight:normal" x="663" y="242.3"></text>
    <text style="fill: #000000;text-anchor:start;font-size:12.7998;font-family:monospace;font-style:normal;font-weight:normal" x="628.03" y="242"></text>
    <text style="fill: #000000;text-anchor:end;font-size:12.7998;font-family:monospace;font-style:normal;font-weight:normal" x="698.014" y="242.6"></text>
  </g>
  <line style="fill: none; fill-opacity:0; stroke-width: 6; stroke: #ff0000" x1="654.736" y1="229.848" x2="696.344" y2="267.342"/>
  <line style="fill: none; fill-opacity:0; stroke-width: 6; stroke: #ff0000" x1="656.344" y1="264.342" x2="693.344" y2="229.342"/>
  <g>
    <polyline style="fill: none; fill-opacity:0; stroke-width: 2; stroke: #000000" points="803.55,54.5 891.55,54.5 891.55,116.728 "/>
    <polyline style="fill: none; fill-opacity:0; stroke-width: 2; stroke: #000000" points="883.55,102.964 891.55,118.964 899.55,102.964 "/>
    <text style="fill: #000000;text-anchor:middle;font-size:12.7998;font-family:monospace;font-style:normal;font-weight:normal" x="847.55" y="51.5"></text>
    <text style="fill: #000000;text-anchor:start;font-size:12.7998;font-family:monospace;font-style:normal;font-weight:normal" x="807.55" y="51.5"></text>
    <text style="fill: #000000;text-anchor:start;font-size:12.7998;font-family:monospace;font-style:normal;font-weight:normal" x="902.55" y="117.2"></text>
  </g>
  <g>
    <rect style="fill: #ffffff" x="378" y="30.5" width="125.5" height="44"/>
    <rect style="fill: none; fill-opacity:0; stroke-width: 2; stroke: #000000" x="378" y="30.5" width="125.5" height="44"/>
    <text style="fill: #000000;text-anchor:middle;font-size:12.8;font-family:monospace;font-style:normal;font-weight:normal" x="440.75" y="46.5">&lt;&lt;association&gt;&gt;</text>
    <text style="fill: #000000;text-anchor:middle;font-size:16;font-family:sanserif;font-style:normal;font-weight:700" x="440.75" y="65.5">Class</text>
    <rect style="fill: #ffffff" x="378" y="74.5" width="125.5" height="8"/>
    <rect style="fill: none; fill-opacity:0; stroke-width: 2; stroke: #000000" x="378" y="74.5" width="125.5" height="8"/>
    <rect style="fill: #ffffff" x="378" y="82.5" width="125.5" height="8"/>
    <rect style="fill: none; fill-opacity:0; stroke-width: 2; stroke: #000000" x="378" y="82.5" width="125.5" height="8"/>
  </g>
  <line style="fill: none; fill-opacity:0; stroke-width: 2; stroke-dasharray: 8; stroke: #000000" x1="503.5" y1="52.5" x2="548" y2="51.5"/>
  <g>
    <rect style="fill: #ffffff" x="927.5" y="33.1" width="125.5" height="44"/>
    <rect style="fill: none; fill-opacity:0; stroke-width: 2; stroke: #000000" x="927.5" y="33.1" width="125.5" height="44"/>
    <text style="fill: #000000;text-anchor:middle;font-size:12.8;font-family:monospace;font-style:normal;font-weight:normal" x="990.25" y="49.1">&lt;&lt;association&gt;&gt;</text>
    <text style="fill: #000000;text-anchor:middle;font-size:16;font-family:sanserif;font-style:normal;font-weight:700" x="990.25" y="68.1">Class</text>
    <rect style="fill: #ffffff" x="927.5" y="77.1" width="125.5" height="8"/>
    <rect style="fill: none; fill-opacity:0; stroke-width: 2; stroke: #000000" x="927.5" y="77.1" width="125.5" height="8"/>
    <rect style="fill: #ffffff" x="927.5" y="85.1" width="125.5" height="8"/>
    <rect style="fill: none; fill-opacity:0; stroke-width: 2; stroke: #000000" x="927.5" y="85.1" width="125.5" height="8"/>
  </g>
  <line style="fill: none; fill-opacity:0; stroke-width: 2; stroke-dasharray: 8; stroke: #ff0000" x1="891" y1="54.5" x2="927.5" y2="55.1"/>
  <line style="fill: none; fill-opacity:0; stroke-width: 6; stroke: #ff0000" x1="903.742" y1="83.5042" x2="1072" y2="34.5"/>
  <line style="fill: none; fill-opacity:0; stroke-width: 6; stroke: #ff0000" x1="894.472" y1="36.3344" x2="1068" y2="87.5"/>
  <g>
    <polyline style="fill: none; fill-opacity:0; stroke-width: 2; stroke: #000000" points="1095.53,120.801 1095.53,113.5 1133,113.5 1133,143.8 1125.04,143.8 "/>
    <text style="fill: #000000;text-anchor:middle;font-size:12.7998;font-family:monospace;font-style:normal;font-weight:normal" x="1114.26" y="110.5"></text>
    <text style="fill: #000000;text-anchor:start;font-size:12.7998;font-family:monospace;font-style:normal;font-weight:normal" x="1099.53" y="116.801"></text>
    <text style="fill: #000000;text-anchor:start;font-size:12.7998;font-family:monospace;font-style:normal;font-weight:normal" x="1129.04" y="140.8"></text>
  </g>
  <g>
    <polyline style="fill: none; fill-opacity:0; stroke-width: 2; stroke: #000000" points="1199.02,220.424 1199.02,215.5 1236,215.5 1236,268.6 1228.53,268.6 "/>
    <polygon style="fill: #ffffff" points="1199.02,245.596 1194.22,231.596 1199.02,217.596 1203.82,231.596 "/>
    <polygon style="fill: none; fill-opacity:0; stroke-width: 2; stroke: #000000" points="1199.02,245.596 1194.22,231.596 1199.02,217.596 1203.82,231.596 "/>
    <text style="fill: #000000;text-anchor:middle;font-size:12.7998;font-family:monospace;font-style:normal;font-weight:normal" x="1217.51" y="212.5"></text>
    <text style="fill: #000000;text-anchor:start;font-size:12.7998;font-family:monospace;font-style:normal;font-weight:normal" x="1210.02" y="241.596"></text>
    <text style="fill: #000000;text-anchor:start;font-size:12.7998;font-family:monospace;font-style:normal;font-weight:normal" x="1232.53" y="265.6"></text>
  </g>
  <g>
    <polyline style="fill: none; fill-opacity:0; stroke-width: 2; stroke: #ff0000" points="321.525,290.372 321.525,298.5 528.025,298.5 528.025,266.6 "/>
    <polygon style="fill: #ffffff" points="321.525,265.2 326.325,279.2 321.525,293.2 316.725,279.2 "/>
    <polygon style="fill: none; fill-opacity:0; stroke-width: 2; stroke: #ff0000" points="321.525,265.2 326.325,279.2 321.525,293.2 316.725,279.2 "/>
  </g>
  <line style="fill: none; fill-opacity:0; stroke-width: 6; stroke: #ff0000" x1="390.737" y1="284.837" x2="414" y2="309.5"/>
  <line style="fill: none; fill-opacity:0; stroke-width: 6; stroke: #ff0000" x1="389.343" y1="307.83" x2="413" y2="286.5"/>
</svg>
