<?xml version="1.0" encoding="UTF-8" standalone="no"?>
<!DOCTYPE svg PUBLIC "-//W3C//DTD SVG 1.0//EN" "http://www.w3.org/TR/2001/PR-SVG-20010719/DTD/svg10.dtd">
<svg width="50cm" height="23cm" viewBox="-40 200 990 445" xmlns="http://www.w3.org/2000/svg" xmlns:xlink="http://www.w3.org/1999/xlink">
  <g>
    <rect style="fill: #9aeb1e" x="247" y="326" width="20" height="24"/>
    <rect style="fill: none; fill-opacity:0; stroke-width: 2; stroke: #000000" x="247" y="326" width="20" height="24"/>
  </g>
  <g>
    <rect style="fill: #9aeb1e" x="267" y="326" width="20" height="24"/>
    <rect style="fill: none; fill-opacity:0; stroke-width: 2; stroke: #000000" x="267" y="326" width="20" height="24"/>
  </g>
  <g>
    <rect style="fill: #9aeb1e" x="287" y="326" width="20" height="24"/>
    <rect style="fill: none; fill-opacity:0; stroke-width: 2; stroke: #000000" x="287" y="326" width="20" height="24"/>
  </g>
  <g>
    <rect style="fill: #9aeb1e" x="307" y="326" width="20" height="24"/>
    <rect style="fill: none; fill-opacity:0; stroke-width: 2; stroke: #000000" x="307" y="326" width="20" height="24"/>
  </g>
  <g>
    <rect style="fill: #9aeb1e" x="327" y="326" width="20" height="24"/>
    <rect style="fill: none; fill-opacity:0; stroke-width: 2; stroke: #000000" x="327" y="326" width="20" height="24"/>
  </g>
  <g>
    <rect style="fill: #9aeb1e" x="347" y="326" width="20" height="24"/>
    <rect style="fill: none; fill-opacity:0; stroke-width: 2; stroke: #000000" x="347" y="326" width="20" height="24"/>
  </g>
  <g>
    <rect style="fill: #9aeb1e" x="367" y="326" width="20" height="24"/>
    <rect style="fill: none; fill-opacity:0; stroke-width: 2; stroke: #000000" x="367" y="326" width="20" height="24"/>
  </g>
  <g>
    <rect style="fill: #9aeb1e" x="387" y="326" width="20" height="24"/>
    <rect style="fill: none; fill-opacity:0; stroke-width: 2; stroke: #000000" x="387" y="326" width="20" height="24"/>
  </g>
  <g>
    <rect style="fill: #9aeb1e" x="407" y="326" width="20" height="24"/>
    <rect style="fill: none; fill-opacity:0; stroke-width: 2; stroke: #000000" x="407" y="326" width="20" height="24"/>
  </g>
  <g>
    <rect style="fill: #f9d50e" x="427" y="326" width="20" height="24"/>
    <rect style="fill: none; fill-opacity:0; stroke-width: 2; stroke: #000000" x="427" y="326" width="20" height="24"/>
  </g>
  <g>
    <rect style="fill: #f9d50e" x="447" y="326" width="20" height="24"/>
    <rect style="fill: none; fill-opacity:0; stroke-width: 2; stroke: #000000" x="447" y="326" width="20" height="24"/>
  </g>
  <g>
    <rect style="fill: #f9d50e" x="467" y="326" width="20" height="24"/>
    <rect style="fill: none; fill-opacity:0; stroke-width: 2; stroke: #000000" x="467" y="326" width="20" height="24"/>
  </g>
  <g>
    <rect style="fill: #ff423d" x="487" y="326" width="20" height="24"/>
    <rect style="fill: none; fill-opacity:0; stroke-width: 2; stroke: #000000" x="487" y="326" width="20" height="24"/>
  </g>
  <g>
    <rect style="fill: #9aeb1e" x="507" y="326" width="20" height="24"/>
    <rect style="fill: none; fill-opacity:0; stroke-width: 2; stroke: #000000" x="507" y="326" width="20" height="24"/>
  </g>
  <g>
    <rect style="fill: #9aeb1e" x="527" y="326" width="20" height="24"/>
    <rect style="fill: none; fill-opacity:0; stroke-width: 2; stroke: #000000" x="527" y="326" width="20" height="24"/>
  </g>
  <g>
    <rect style="fill: #ffffff" x="80" y="240" width="20" height="24"/>
    <rect style="fill: none; fill-opacity:0; stroke-width: 2; stroke: #000000" x="80" y="240" width="20" height="24"/>
  </g>
  <g>
    <rect style="fill: #d1fd8e" x="100" y="240" width="20" height="24"/>
    <rect style="fill: none; fill-opacity:0; stroke-width: 2; stroke: #000000" x="100" y="240" width="20" height="24"/>
  </g>
  <g>
    <rect style="fill: #ffffff" x="120" y="240" width="20" height="24"/>
    <rect style="fill: none; fill-opacity:0; stroke-width: 2; stroke: #000000" x="120" y="240" width="20" height="24"/>
  </g>
  <g>
    <rect style="fill: #d1fd8e" x="140" y="240" width="20" height="24"/>
    <rect style="fill: none; fill-opacity:0; stroke-width: 2; stroke: #000000" x="140" y="240" width="20" height="24"/>
  </g>
  <g>
    <rect style="fill: #ffffff" x="160" y="240" width="20" height="24"/>
    <rect style="fill: none; fill-opacity:0; stroke-width: 2; stroke: #000000" x="160" y="240" width="20" height="24"/>
  </g>
  <g>
    <rect style="fill: #d1fd8e" x="180" y="240" width="20" height="24"/>
    <rect style="fill: none; fill-opacity:0; stroke-width: 2; stroke: #000000" x="180" y="240" width="20" height="24"/>
  </g>
  <g>
    <rect style="fill: #ffffff" x="200" y="240" width="20" height="24"/>
    <rect style="fill: none; fill-opacity:0; stroke-width: 2; stroke: #000000" x="200" y="240" width="20" height="24"/>
  </g>
  <g>
    <rect style="fill: #d1fd8e" x="220" y="240" width="20" height="24"/>
    <rect style="fill: none; fill-opacity:0; stroke-width: 2; stroke: #000000" x="220" y="240" width="20" height="24"/>
  </g>
  <g>
    <rect style="fill: #ffffff" x="240" y="240" width="20" height="24"/>
    <rect style="fill: none; fill-opacity:0; stroke-width: 2; stroke: #000000" x="240" y="240" width="20" height="24"/>
  </g>
  <g>
    <rect style="fill: #d1fd8e" x="260" y="240" width="20" height="24"/>
    <rect style="fill: none; fill-opacity:0; stroke-width: 2; stroke: #000000" x="260" y="240" width="20" height="24"/>
  </g>
  <g>
    <rect style="fill: #ffffff" x="280" y="240" width="20" height="24"/>
    <rect style="fill: none; fill-opacity:0; stroke-width: 2; stroke: #000000" x="280" y="240" width="20" height="24"/>
  </g>
  <g>
    <rect style="fill: #d1fd8e" x="300" y="240" width="20" height="24"/>
    <rect style="fill: none; fill-opacity:0; stroke-width: 2; stroke: #000000" x="300" y="240" width="20" height="24"/>
  </g>
  <g>
    <rect style="fill: #ffffff" x="320" y="240" width="20" height="24"/>
    <rect style="fill: none; fill-opacity:0; stroke-width: 2; stroke: #000000" x="320" y="240" width="20" height="24"/>
  </g>
  <g>
    <rect style="fill: #d1fd8e" x="340" y="240" width="20" height="24"/>
    <rect style="fill: none; fill-opacity:0; stroke-width: 2; stroke: #000000" x="340" y="240" width="20" height="24"/>
  </g>
  <g>
    <rect style="fill: #ffffff" x="360" y="240" width="20" height="24"/>
    <rect style="fill: none; fill-opacity:0; stroke-width: 2; stroke: #000000" x="360" y="240" width="20" height="24"/>
  </g>
  <g>
    <rect style="fill: #d1fd8e" x="380" y="240" width="20" height="24"/>
    <rect style="fill: none; fill-opacity:0; stroke-width: 2; stroke: #000000" x="380" y="240" width="20" height="24"/>
  </g>
  <g>
    <rect style="fill: #ffffff" x="400" y="240" width="20" height="24"/>
    <rect style="fill: none; fill-opacity:0; stroke-width: 2; stroke: #000000" x="400" y="240" width="20" height="24"/>
  </g>
  <g>
    <rect style="fill: #d1fd8e" x="420" y="240" width="20" height="24"/>
    <rect style="fill: none; fill-opacity:0; stroke-width: 2; stroke: #000000" x="420" y="240" width="20" height="24"/>
  </g>
  <g>
    <rect style="fill: #ffffff" x="440" y="240" width="20" height="24"/>
    <rect style="fill: none; fill-opacity:0; stroke-width: 2; stroke: #000000" x="440" y="240" width="20" height="24"/>
  </g>
  <g>
    <rect style="fill: #d1fd8e" x="460" y="240" width="20" height="24"/>
    <rect style="fill: none; fill-opacity:0; stroke-width: 2; stroke: #000000" x="460" y="240" width="20" height="24"/>
  </g>
  <g>
    <rect style="fill: #ffffff" x="480" y="240" width="20" height="24"/>
    <rect style="fill: none; fill-opacity:0; stroke-width: 2; stroke: #000000" x="480" y="240" width="20" height="24"/>
  </g>
  <g>
    <rect style="fill: #d1fd8e" x="500" y="240" width="20" height="24"/>
    <rect style="fill: none; fill-opacity:0; stroke-width: 2; stroke: #000000" x="500" y="240" width="20" height="24"/>
  </g>
  <g>
    <rect style="fill: #ffffff" x="520" y="240" width="20" height="24"/>
    <rect style="fill: none; fill-opacity:0; stroke-width: 2; stroke: #000000" x="520" y="240" width="20" height="24"/>
  </g>
  <g>
    <rect style="fill: #d1fd8e" x="540" y="240" width="20" height="24"/>
    <rect style="fill: none; fill-opacity:0; stroke-width: 2; stroke: #000000" x="540" y="240" width="20" height="24"/>
  </g>
  <g>
    <rect style="fill: #ffffff" x="560" y="240" width="20" height="24"/>
    <rect style="fill: none; fill-opacity:0; stroke-width: 2; stroke: #000000" x="560" y="240" width="20" height="24"/>
  </g>
  <g>
    <rect style="fill: #d1fd8e" x="580" y="240" width="20" height="24"/>
    <rect style="fill: none; fill-opacity:0; stroke-width: 2; stroke: #000000" x="580" y="240" width="20" height="24"/>
  </g>
  <g>
    <rect style="fill: #ffffff" x="600" y="240" width="20" height="24"/>
    <rect style="fill: none; fill-opacity:0; stroke-width: 2; stroke: #000000" x="600" y="240" width="20" height="24"/>
  </g>
  <g>
    <rect style="fill: #d1fd8e" x="620" y="240" width="20" height="24"/>
    <rect style="fill: none; fill-opacity:0; stroke-width: 2; stroke: #000000" x="620" y="240" width="20" height="24"/>
  </g>
  <g>
    <rect style="fill: #ffffff" x="640" y="240" width="20" height="24"/>
    <rect style="fill: none; fill-opacity:0; stroke-width: 2; stroke: #000000" x="640" y="240" width="20" height="24"/>
  </g>
  <g>
    <rect style="fill: #d1fd8e" x="660" y="240" width="20" height="24"/>
    <rect style="fill: none; fill-opacity:0; stroke-width: 2; stroke: #000000" x="660" y="240" width="20" height="24"/>
  </g>
  <g>
    <line style="fill: none; fill-opacity:0; stroke-width: 2; stroke: #000000" x1="110" y1="264" x2="252.879" y2="324.262"/>
    <polyline style="fill: none; fill-opacity:0; stroke-width: 2; stroke: #000000" points="243.783,325.852 254.94,325.131 247.669,316.638 "/>
  </g>
  <g>
    <line style="fill: none; fill-opacity:0; stroke-width: 2; stroke: #000000" x1="150" y1="264" x2="272.981" y2="324.038"/>
    <polyline style="fill: none; fill-opacity:0; stroke-width: 2; stroke: #000000" points="263.811,325.125 274.991,325.019 268.198,316.139 "/>
  </g>
  <g>
    <line style="fill: none; fill-opacity:0; stroke-width: 2; stroke: #000000" x1="190" y1="264" x2="293.131" y2="323.758"/>
    <polyline style="fill: none; fill-opacity:0; stroke-width: 2; stroke: #000000" points="283.906,324.192 295.065,324.879 288.92,315.539 "/>
  </g>
  <g>
    <line style="fill: none; fill-opacity:0; stroke-width: 2; stroke: #000000" x1="230" y1="264" x2="313.358" y2="323.405"/>
    <polyline style="fill: none; fill-opacity:0; stroke-width: 2; stroke: #000000" points="304.134,322.971 315.179,324.702 309.937,314.827 "/>
  </g>
  <g>
    <line style="fill: none; fill-opacity:0; stroke-width: 2; stroke: #000000" x1="270" y1="264" x2="333.718" y2="322.963"/>
    <polyline style="fill: none; fill-opacity:0; stroke-width: 2; stroke: #000000" points="324.623,321.359 335.359,324.481 331.415,314.02 "/>
  </g>
  <g>
    <line style="fill: none; fill-opacity:0; stroke-width: 2; stroke: #000000" x1="310" y1="264" x2="354.298" y2="322.436"/>
    <polyline style="fill: none; fill-opacity:0; stroke-width: 2; stroke: #000000" points="345.624,319.27 355.649,324.218 353.593,313.228 "/>
  </g>
  <g>
    <line style="fill: none; fill-opacity:0; stroke-width: 2; stroke: #000000" x1="350" y1="264" x2="375.214" y2="321.9"/>
    <polyline style="fill: none; fill-opacity:0; stroke-width: 2; stroke: #000000" points="367.53,316.778 376.107,323.95 376.699,312.785 "/>
  </g>
  <g>
    <line style="fill: none; fill-opacity:0; stroke-width: 2; stroke: #000000" x1="390" y1="264" x2="396.498" y2="321.556"/>
    <polyline style="fill: none; fill-opacity:0; stroke-width: 2; stroke: #000000" points="390.659,314.402 396.749,323.778 400.596,313.28 "/>
  </g>
  <g>
    <line style="fill: none; fill-opacity:0; stroke-width: 2; stroke: #000000" x1="430" y1="264" x2="417.918" y2="321.623"/>
    <polyline style="fill: none; fill-opacity:0; stroke-width: 2; stroke: #000000" points="414.617,312.998 417.459,323.812 424.405,315.05 "/>
  </g>
  <g>
    <line style="fill: none; fill-opacity:0; stroke-width: 2; stroke: #000000" x1="470" y1="264" x2="439.101" y2="322.052"/>
    <polyline style="fill: none; fill-opacity:0; stroke-width: 2; stroke: #000000" points="438.335,312.849 438.051,324.026 447.163,317.548 "/>
  </g>
  <g>
    <line style="fill: none; fill-opacity:0; stroke-width: 2; stroke: #000000" x1="510" y1="264" x2="459.906" y2="322.601"/>
    <polyline style="fill: none; fill-opacity:0; stroke-width: 2; stroke: #000000" points="461.15,313.45 458.453,324.3 468.751,319.948 "/>
  </g>
  <g>
    <line style="fill: none; fill-opacity:0; stroke-width: 2; stroke: #000000" x1="550" y1="264" x2="480.409" y2="323.105"/>
    <polyline style="fill: none; fill-opacity:0; stroke-width: 2; stroke: #000000" points="483.09,314.268 478.704,324.552 489.563,321.89 "/>
  </g>
  <g>
    <line style="fill: none; fill-opacity:0; stroke-width: 2; stroke: #000000" x1="590" y1="264" x2="500.721" y2="323.519"/>
    <polyline style="fill: none; fill-opacity:0; stroke-width: 2; stroke: #000000" points="504.408,315.052 498.861,324.76 509.955,323.373 "/>
  </g>
  <g>
    <line style="fill: none; fill-opacity:0; stroke-width: 2; stroke: #000000" x1="630" y1="264" x2="520.921" y2="323.849"/>
    <polyline style="fill: none; fill-opacity:0; stroke-width: 2; stroke: #000000" points="525.322,315.731 518.96,324.924 530.133,324.498 "/>
  </g>
  <g>
    <line style="fill: none; fill-opacity:0; stroke-width: 2; stroke: #000000" x1="670" y1="264" x2="541.053" y2="324.11"/>
    <polyline style="fill: none; fill-opacity:0; stroke-width: 2; stroke: #000000" points="545.978,316.298 539.027,325.055 550.203,325.362 "/>
  </g>
  <g>
    <path style="fill: none; fill-opacity:0; stroke-width: 2; stroke: #000000" d="M 110 240 C 120,210 140,210 148.586,235.757"/>
    <polyline style="fill: none; fill-opacity:0; stroke-width: 2; stroke: #000000" points="141.387,229.973 149.293,237.879 150.874,226.811 "/>
  </g>
  <text style="fill: #000000;text-anchor:start;font-size:12.7998;font-family:sanserif;font-style:normal;font-weight:normal" x="111" y="212">
    <tspan x="111" y="212">Offset</tspan>
  </text>
  <g>
    <rect style="fill: #9aeb1e" x="40" y="600" width="57.05" height="28"/>
    <rect style="fill: none; fill-opacity:0; stroke-width: 2; stroke: #000000" x="40" y="600" width="57.05" height="28"/>
    <text style="fill: #000000;text-anchor:middle;font-size:16;font-family:sanserif;font-style:normal;font-weight:700" x="68.525" y="619">Class</text>
    <rect style="fill: #9aeb1e" x="40" y="628" width="57.05" height="8"/>
    <rect style="fill: none; fill-opacity:0; stroke-width: 2; stroke: #000000" x="40" y="628" width="57.05" height="8"/>
    <rect style="fill: #9aeb1e" x="40" y="636" width="57.05" height="8"/>
    <rect style="fill: none; fill-opacity:0; stroke-width: 2; stroke: #000000" x="40" y="636" width="57.05" height="8"/>
  </g>
  <g>
    <rect style="fill: #9aeb1e" x="120" y="600" width="57.05" height="28"/>
    <rect style="fill: none; fill-opacity:0; stroke-width: 2; stroke: #000000" x="120" y="600" width="57.05" height="28"/>
    <text style="fill: #000000;text-anchor:middle;font-size:16;font-family:sanserif;font-style:normal;font-weight:700" x="148.525" y="619">Class</text>
    <rect style="fill: #9aeb1e" x="120" y="628" width="57.05" height="8"/>
    <rect style="fill: none; fill-opacity:0; stroke-width: 2; stroke: #000000" x="120" y="628" width="57.05" height="8"/>
    <rect style="fill: #9aeb1e" x="120" y="636" width="57.05" height="8"/>
    <rect style="fill: none; fill-opacity:0; stroke-width: 2; stroke: #000000" x="120" y="636" width="57.05" height="8"/>
  </g>
  <g>
    <rect style="fill: #9aeb1e" x="200" y="600" width="57.05" height="28"/>
    <rect style="fill: none; fill-opacity:0; stroke-width: 2; stroke: #000000" x="200" y="600" width="57.05" height="28"/>
    <text style="fill: #000000;text-anchor:middle;font-size:16;font-family:sanserif;font-style:normal;font-weight:700" x="228.525" y="619">Class</text>
    <rect style="fill: #9aeb1e" x="200" y="628" width="57.05" height="8"/>
    <rect style="fill: none; fill-opacity:0; stroke-width: 2; stroke: #000000" x="200" y="628" width="57.05" height="8"/>
    <rect style="fill: #9aeb1e" x="200" y="636" width="57.05" height="8"/>
    <rect style="fill: none; fill-opacity:0; stroke-width: 2; stroke: #000000" x="200" y="636" width="57.05" height="8"/>
  </g>
  <g>
    <rect style="fill: #9aeb1e" x="280" y="600" width="57.05" height="28"/>
    <rect style="fill: none; fill-opacity:0; stroke-width: 2; stroke: #000000" x="280" y="600" width="57.05" height="28"/>
    <text style="fill: #000000;text-anchor:middle;font-size:16;font-family:sanserif;font-style:normal;font-weight:700" x="308.525" y="619">Class</text>
    <rect style="fill: #9aeb1e" x="280" y="628" width="57.05" height="8"/>
    <rect style="fill: none; fill-opacity:0; stroke-width: 2; stroke: #000000" x="280" y="628" width="57.05" height="8"/>
    <rect style="fill: #9aeb1e" x="280" y="636" width="57.05" height="8"/>
    <rect style="fill: none; fill-opacity:0; stroke-width: 2; stroke: #000000" x="280" y="636" width="57.05" height="8"/>
  </g>
  <g>
    <rect style="fill: #9aeb1e" x="360" y="600" width="57.05" height="28"/>
    <rect style="fill: none; fill-opacity:0; stroke-width: 2; stroke: #000000" x="360" y="600" width="57.05" height="28"/>
    <text style="fill: #000000;text-anchor:middle;font-size:16;font-family:sanserif;font-style:normal;font-weight:700" x="388.525" y="619">Class</text>
    <rect style="fill: #9aeb1e" x="360" y="628" width="57.05" height="8"/>
    <rect style="fill: none; fill-opacity:0; stroke-width: 2; stroke: #000000" x="360" y="628" width="57.05" height="8"/>
    <rect style="fill: #9aeb1e" x="360" y="636" width="57.05" height="8"/>
    <rect style="fill: none; fill-opacity:0; stroke-width: 2; stroke: #000000" x="360" y="636" width="57.05" height="8"/>
  </g>
  <g>
    <rect style="fill: #9aeb1e" x="440" y="600" width="57.05" height="28"/>
    <rect style="fill: none; fill-opacity:0; stroke-width: 2; stroke: #000000" x="440" y="600" width="57.05" height="28"/>
    <text style="fill: #000000;text-anchor:middle;font-size:16;font-family:sanserif;font-style:normal;font-weight:700" x="468.525" y="619">Class</text>
    <rect style="fill: #9aeb1e" x="440" y="628" width="57.05" height="8"/>
    <rect style="fill: none; fill-opacity:0; stroke-width: 2; stroke: #000000" x="440" y="628" width="57.05" height="8"/>
    <rect style="fill: #9aeb1e" x="440" y="636" width="57.05" height="8"/>
    <rect style="fill: none; fill-opacity:0; stroke-width: 2; stroke: #000000" x="440" y="636" width="57.05" height="8"/>
  </g>
  <g>
    <rect style="fill: #9aeb1e" x="520" y="600" width="57.05" height="28"/>
    <rect style="fill: none; fill-opacity:0; stroke-width: 2; stroke: #000000" x="520" y="600" width="57.05" height="28"/>
    <text style="fill: #000000;text-anchor:middle;font-size:16;font-family:sanserif;font-style:normal;font-weight:700" x="548.525" y="619">Class</text>
    <rect style="fill: #9aeb1e" x="520" y="628" width="57.05" height="8"/>
    <rect style="fill: none; fill-opacity:0; stroke-width: 2; stroke: #000000" x="520" y="628" width="57.05" height="8"/>
    <rect style="fill: #9aeb1e" x="520" y="636" width="57.05" height="8"/>
    <rect style="fill: none; fill-opacity:0; stroke-width: 2; stroke: #000000" x="520" y="636" width="57.05" height="8"/>
  </g>
  <g>
    <rect style="fill: #9aeb1e" x="600" y="600" width="57.05" height="28"/>
    <rect style="fill: none; fill-opacity:0; stroke-width: 2; stroke: #000000" x="600" y="600" width="57.05" height="28"/>
    <text style="fill: #000000;text-anchor:middle;font-size:16;font-family:sanserif;font-style:normal;font-weight:700" x="628.525" y="619">Class</text>
    <rect style="fill: #9aeb1e" x="600" y="628" width="57.05" height="8"/>
    <rect style="fill: none; fill-opacity:0; stroke-width: 2; stroke: #000000" x="600" y="628" width="57.05" height="8"/>
    <rect style="fill: #9aeb1e" x="600" y="636" width="57.05" height="8"/>
    <rect style="fill: none; fill-opacity:0; stroke-width: 2; stroke: #000000" x="600" y="636" width="57.05" height="8"/>
  </g>
  <g>
    <rect style="fill: #f9d50e" x="120" y="500" width="57.05" height="28"/>
    <rect style="fill: none; fill-opacity:0; stroke-width: 2; stroke: #000000" x="120" y="500" width="57.05" height="28"/>
    <text style="fill: #000000;text-anchor:middle;font-size:16;font-family:sanserif;font-style:normal;font-weight:700" x="148.525" y="519">Class</text>
    <rect style="fill: #f9d50e" x="120" y="528" width="57.05" height="8"/>
    <rect style="fill: none; fill-opacity:0; stroke-width: 2; stroke: #000000" x="120" y="528" width="57.05" height="8"/>
    <rect style="fill: #f9d50e" x="120" y="536" width="57.05" height="8"/>
    <rect style="fill: none; fill-opacity:0; stroke-width: 2; stroke: #000000" x="120" y="536" width="57.05" height="8"/>
  </g>
  <g>
    <rect style="fill: #f9d50e" x="360" y="500" width="57.05" height="28"/>
    <rect style="fill: none; fill-opacity:0; stroke-width: 2; stroke: #000000" x="360" y="500" width="57.05" height="28"/>
    <text style="fill: #000000;text-anchor:middle;font-size:16;font-family:sanserif;font-style:normal;font-weight:700" x="388.525" y="519">Class</text>
    <rect style="fill: #f9d50e" x="360" y="528" width="57.05" height="8"/>
    <rect style="fill: none; fill-opacity:0; stroke-width: 2; stroke: #000000" x="360" y="528" width="57.05" height="8"/>
    <rect style="fill: #f9d50e" x="360" y="536" width="57.05" height="8"/>
    <rect style="fill: none; fill-opacity:0; stroke-width: 2; stroke: #000000" x="360" y="536" width="57.05" height="8"/>
  </g>
  <g>
    <rect style="fill: #f9d50e" x="600" y="500" width="57.05" height="28"/>
    <rect style="fill: none; fill-opacity:0; stroke-width: 2; stroke: #000000" x="600" y="500" width="57.05" height="28"/>
    <text style="fill: #000000;text-anchor:middle;font-size:16;font-family:sanserif;font-style:normal;font-weight:700" x="628.525" y="519">Class</text>
    <rect style="fill: #f9d50e" x="600" y="528" width="57.05" height="8"/>
    <rect style="fill: none; fill-opacity:0; stroke-width: 2; stroke: #000000" x="600" y="528" width="57.05" height="8"/>
    <rect style="fill: #f9d50e" x="600" y="536" width="57.05" height="8"/>
    <rect style="fill: none; fill-opacity:0; stroke-width: 2; stroke: #000000" x="600" y="536" width="57.05" height="8"/>
  </g>
  <g>
    <rect style="fill: #9aeb1e" x="680" y="600" width="57.05" height="28"/>
    <rect style="fill: none; fill-opacity:0; stroke-width: 2; stroke: #000000" x="680" y="600" width="57.05" height="28"/>
    <text style="fill: #000000;text-anchor:middle;font-size:16;font-family:sanserif;font-style:normal;font-weight:700" x="708.525" y="619">Class</text>
    <rect style="fill: #9aeb1e" x="680" y="628" width="57.05" height="8"/>
    <rect style="fill: none; fill-opacity:0; stroke-width: 2; stroke: #000000" x="680" y="628" width="57.05" height="8"/>
    <rect style="fill: #9aeb1e" x="680" y="636" width="57.05" height="8"/>
    <rect style="fill: none; fill-opacity:0; stroke-width: 2; stroke: #000000" x="680" y="636" width="57.05" height="8"/>
  </g>
  <g>
    <rect style="fill: #ff423d" x="360" y="400" width="57.05" height="28"/>
    <rect style="fill: none; fill-opacity:0; stroke-width: 2; stroke: #000000" x="360" y="400" width="57.05" height="28"/>
    <text style="fill: #000000;text-anchor:middle;font-size:16;font-family:sanserif;font-style:normal;font-weight:700" x="388.525" y="419">Class</text>
    <rect style="fill: #ff423d" x="360" y="428" width="57.05" height="8"/>
    <rect style="fill: none; fill-opacity:0; stroke-width: 2; stroke: #000000" x="360" y="428" width="57.05" height="8"/>
    <rect style="fill: #ff423d" x="360" y="436" width="57.05" height="8"/>
    <rect style="fill: none; fill-opacity:0; stroke-width: 2; stroke: #000000" x="360" y="436" width="57.05" height="8"/>
  </g>
  <g>
    <polyline style="fill: none; fill-opacity:0; stroke-width: 2; stroke: #000000" points="148.525,562.236 148.525,572 68.525,572 68.525,600 "/>
    <polygon style="fill: #ffffff" points="156.525,562.236 148.525,546.236 140.525,562.236 "/>
    <polygon style="fill: none; fill-opacity:0; stroke-width: 2; stroke: #000000" points="156.525,562.236 148.525,546.236 140.525,562.236 "/>
  </g>
  <g>
    <polyline style="fill: none; fill-opacity:0; stroke-width: 2; stroke: #000000" points="148.525,563.242 148.525,598.994 148.525,598.994 "/>
    <polygon style="fill: #ffffff" points="156.525,563.242 148.525,547.242 140.525,563.242 "/>
    <polygon style="fill: none; fill-opacity:0; stroke-width: 2; stroke: #000000" points="156.525,563.242 148.525,547.242 140.525,563.242 "/>
  </g>
  <g>
    <polyline style="fill: none; fill-opacity:0; stroke-width: 2; stroke: #000000" points="148.525,563.242 148.525,572 228.525,572 228.525,598.994 "/>
    <polygon style="fill: #ffffff" points="156.525,563.242 148.525,547.242 140.525,563.242 "/>
    <polygon style="fill: none; fill-opacity:0; stroke-width: 2; stroke: #000000" points="156.525,563.242 148.525,547.242 140.525,563.242 "/>
  </g>
  <g>
    <polyline style="fill: none; fill-opacity:0; stroke-width: 2; stroke: #000000" points="388.525,463.242 388.525,472 148.525,472 148.525,498.994 "/>
    <polygon style="fill: #ffffff" points="396.525,463.242 388.525,447.242 380.525,463.242 "/>
    <polygon style="fill: none; fill-opacity:0; stroke-width: 2; stroke: #000000" points="396.525,463.242 388.525,447.242 380.525,463.242 "/>
  </g>
  <g>
    <polyline style="fill: none; fill-opacity:0; stroke-width: 2; stroke: #000000" points="388.525,463.242 388.525,498.994 388.525,498.994 "/>
    <polygon style="fill: #ffffff" points="396.525,463.242 388.525,447.242 380.525,463.242 "/>
    <polygon style="fill: none; fill-opacity:0; stroke-width: 2; stroke: #000000" points="396.525,463.242 388.525,447.242 380.525,463.242 "/>
  </g>
  <g>
    <polyline style="fill: none; fill-opacity:0; stroke-width: 2; stroke: #000000" points="388.525,463.242 388.525,472 628.525,472 628.525,498.994 "/>
    <polygon style="fill: #ffffff" points="396.525,463.242 388.525,447.242 380.525,463.242 "/>
    <polygon style="fill: none; fill-opacity:0; stroke-width: 2; stroke: #000000" points="396.525,463.242 388.525,447.242 380.525,463.242 "/>
  </g>
  <g>
    <polyline style="fill: none; fill-opacity:0; stroke-width: 2; stroke: #000000" points="388.525,563.242 388.525,572 308.525,572 308.525,598.994 "/>
    <polygon style="fill: #ffffff" points="396.525,563.242 388.525,547.242 380.525,563.242 "/>
    <polygon style="fill: none; fill-opacity:0; stroke-width: 2; stroke: #000000" points="396.525,563.242 388.525,547.242 380.525,563.242 "/>
  </g>
  <g>
    <polyline style="fill: none; fill-opacity:0; stroke-width: 2; stroke: #000000" points="388.525,563.242 388.525,598.994 388.525,598.994 "/>
    <polygon style="fill: #ffffff" points="396.525,563.242 388.525,547.242 380.525,563.242 "/>
    <polygon style="fill: none; fill-opacity:0; stroke-width: 2; stroke: #000000" points="396.525,563.242 388.525,547.242 380.525,563.242 "/>
  </g>
  <g>
    <polyline style="fill: none; fill-opacity:0; stroke-width: 2; stroke: #000000" points="388.525,563.242 388.525,572 468.525,572 468.525,598.994 "/>
    <polygon style="fill: #ffffff" points="396.525,563.242 388.525,547.242 380.525,563.242 "/>
    <polygon style="fill: none; fill-opacity:0; stroke-width: 2; stroke: #000000" points="396.525,563.242 388.525,547.242 380.525,563.242 "/>
  </g>
  <g>
    <polyline style="fill: none; fill-opacity:0; stroke-width: 2; stroke: #000000" points="628.525,563.242 628.525,572 548.525,572 548.525,598.994 "/>
    <polygon style="fill: #ffffff" points="636.525,563.242 628.525,547.242 620.525,563.242 "/>
    <polygon style="fill: none; fill-opacity:0; stroke-width: 2; stroke: #000000" points="636.525,563.242 628.525,547.242 620.525,563.242 "/>
  </g>
  <g>
    <polyline style="fill: none; fill-opacity:0; stroke-width: 2; stroke: #000000" points="628.525,563.242 628.525,598.994 628.525,598.994 "/>
    <polygon style="fill: #ffffff" points="636.525,563.242 628.525,547.242 620.525,563.242 "/>
    <polygon style="fill: none; fill-opacity:0; stroke-width: 2; stroke: #000000" points="636.525,563.242 628.525,547.242 620.525,563.242 "/>
  </g>
  <g>
    <polyline style="fill: none; fill-opacity:0; stroke-width: 2; stroke: #000000" points="628.525,563.242 628.525,572 708.525,572 708.525,598.994 "/>
    <polygon style="fill: #ffffff" points="636.525,563.242 628.525,547.242 620.525,563.242 "/>
    <polygon style="fill: none; fill-opacity:0; stroke-width: 2; stroke: #000000" points="636.525,563.242 628.525,547.242 620.525,563.242 "/>
  </g>
  <g>
    <line style="fill: none; fill-opacity:0; stroke-width: 0.02; stroke: #7f7f7f" x1="257" y1="350" x2="84.46" y2="599.003"/>
    <polyline style="fill: none; fill-opacity:0; stroke-width: 0.02; stroke: #7f7f7f" points="86.0445,587.938 84.4588,599.005 94.2641,593.633 "/>
  </g>
  <g>
    <line style="fill: none; fill-opacity:0; stroke-width: 0.02; stroke: #7f7f7f" x1="277" y1="350" x2="159.387" y2="599.003"/>
    <polyline style="fill: none; fill-opacity:0; stroke-width: 0.02; stroke: #7f7f7f" points="159.136,587.827 159.386,599.005 168.178,592.098 "/>
  </g>
  <g>
    <line style="fill: none; fill-opacity:0; stroke-width: 0.02; stroke: #7f7f7f" x1="297" y1="350" x2="234.315" y2="599.002"/>
    <polyline style="fill: none; fill-opacity:0; stroke-width: 0.02; stroke: #7f7f7f" points="231.907,588.087 234.314,599.005 241.604,590.528 "/>
  </g>
  <g>
    <line style="fill: none; fill-opacity:0; stroke-width: 0.02; stroke: #7f7f7f" x1="317" y1="350" x2="309.242" y2="599.002"/>
    <polyline style="fill: none; fill-opacity:0; stroke-width: 0.02; stroke: #7f7f7f" points="304.555,588.854 309.241,599.005 314.55,589.165 "/>
  </g>
  <g>
    <line style="fill: none; fill-opacity:0; stroke-width: 0.02; stroke: #7f7f7f" x1="337" y1="350" x2="384.169" y2="599.002"/>
    <polyline style="fill: none; fill-opacity:0; stroke-width: 0.02; stroke: #7f7f7f" points="377.395,590.11 384.169,599.005 387.22,588.249 "/>
  </g>
  <g>
    <line style="fill: none; fill-opacity:0; stroke-width: 0.02; stroke: #7f7f7f" x1="357" y1="350" x2="459.096" y2="599.003"/>
    <polyline style="fill: none; fill-opacity:0; stroke-width: 0.02; stroke: #7f7f7f" points="450.677,591.649 459.097,599.005 459.929,587.855 "/>
  </g>
  <g>
    <line style="fill: none; fill-opacity:0; stroke-width: 0.02; stroke: #7f7f7f" x1="377" y1="350" x2="534.023" y2="599.003"/>
    <polyline style="fill: none; fill-opacity:0; stroke-width: 0.02; stroke: #7f7f7f" points="524.461,593.213 534.024,599.005 532.919,587.879 "/>
  </g>
  <g>
    <line style="fill: none; fill-opacity:0; stroke-width: 0.02; stroke: #7f7f7f" x1="397" y1="350" x2="608.95" y2="599.003"/>
    <polyline style="fill: none; fill-opacity:0; stroke-width: 0.02; stroke: #7f7f7f" points="598.663,594.631 608.952,599.005 606.278,588.149 "/>
  </g>
  <g>
    <line style="fill: none; fill-opacity:0; stroke-width: 0.02; stroke: #7f7f7f" x1="417" y1="350" x2="683.878" y2="599.004"/>
    <polyline style="fill: none; fill-opacity:0; stroke-width: 0.02; stroke: #7f7f7f" points="673.157,595.839 683.88,599.005 679.979,588.527 "/>
  </g>
  <g>
    <line style="fill: none; fill-opacity:0; stroke-width: 0.02; stroke: #7f7f7f" x1="457" y1="350" x2="397.654" y2="499.068"/>
    <polyline style="fill: none; fill-opacity:0; stroke-width: 0.02; stroke: #7f7f7f" points="396.707,487.93 397.654,499.07 405.998,491.629 "/>
  </g>
  <g>
    <line style="fill: none; fill-opacity:0; stroke-width: 0.02; stroke: #7f7f7f" x1="437" y1="350" x2="178.056" y2="504.392"/>
    <polyline style="fill: none; fill-opacity:0; stroke-width: 0.02; stroke: #7f7f7f" points="184.083,494.978 178.054,504.394 189.204,503.567 "/>
  </g>
  <g>
    <line style="fill: none; fill-opacity:0; stroke-width: 0.02; stroke: #7f7f7f" x1="477" y1="350" x2="608.324" y2="499.069"/>
    <polyline style="fill: none; fill-opacity:0; stroke-width: 0.02; stroke: #7f7f7f" points="597.963,494.872 608.325,499.071 605.467,488.262 "/>
  </g>
  <g>
    <line style="fill: none; fill-opacity:0; stroke-width: 0.02; stroke: #7f7f7f" x1="497" y1="350" x2="418.044" y2="402.407"/>
    <polyline style="fill: none; fill-opacity:0; stroke-width: 0.02; stroke: #7f7f7f" points="423.609,392.712 418.042,402.408 429.139,401.044 "/>
  </g>
  <g>
    <rect style="fill: #9aeb1e" x="860" y="600" width="57.05" height="28"/>
    <rect style="fill: none; fill-opacity:0; stroke-width: 2; stroke: #000000" x="860" y="600" width="57.05" height="28"/>
    <text style="fill: #000000;text-anchor:middle;font-size:16;font-family:sanserif;font-style:normal;font-weight:700" x="888.525" y="619">Class</text>
    <rect style="fill: #9aeb1e" x="860" y="628" width="57.05" height="8"/>
    <rect style="fill: none; fill-opacity:0; stroke-width: 2; stroke: #000000" x="860" y="628" width="57.05" height="8"/>
    <rect style="fill: #9aeb1e" x="860" y="636" width="57.05" height="8"/>
    <rect style="fill: none; fill-opacity:0; stroke-width: 2; stroke: #000000" x="860" y="636" width="57.05" height="8"/>
  </g>
  <g>
    <rect style="fill: #9aeb1e" x="780" y="600" width="57.05" height="28"/>
    <rect style="fill: none; fill-opacity:0; stroke-width: 2; stroke: #000000" x="780" y="600" width="57.05" height="28"/>
    <text style="fill: #000000;text-anchor:middle;font-size:16;font-family:sanserif;font-style:normal;font-weight:700" x="808.525" y="619">Class</text>
    <rect style="fill: #9aeb1e" x="780" y="628" width="57.05" height="8"/>
    <rect style="fill: none; fill-opacity:0; stroke-width: 2; stroke: #000000" x="780" y="628" width="57.05" height="8"/>
    <rect style="fill: #9aeb1e" x="780" y="636" width="57.05" height="8"/>
    <rect style="fill: none; fill-opacity:0; stroke-width: 2; stroke: #000000" x="780" y="636" width="57.05" height="8"/>
  </g>
  <g>
    <line style="fill: none; fill-opacity:0; stroke-width: 0.02; stroke: #7f7f7f" x1="517" y1="350" x2="783.878" y2="599.004"/>
    <polyline style="fill: none; fill-opacity:0; stroke-width: 0.02; stroke: #7f7f7f" points="773.157,595.839 783.88,599.005 779.979,588.527 "/>
  </g>
  <g>
    <line style="fill: none; fill-opacity:0; stroke-width: 0.02; stroke: #7f7f7f" x1="537" y1="350" x2="858.988" y2="599.145"/>
    <polyline style="fill: none; fill-opacity:0; stroke-width: 0.02; stroke: #7f7f7f" points="848.021,596.981 858.99,599.147 854.141,589.073 "/>
  </g>
  <text style="fill: #000000;text-anchor:start;font-size:22.6226;font-family:sanserif;font-style:normal;font-weight:normal" x="691" y="260">
    <tspan x="691" y="260">...</tspan>
  </text>
  <text style="fill: #000000;text-anchor:start;font-size:22.6226;font-family:sanserif;font-style:normal;font-weight:normal" x="555" y="345">
    <tspan x="555" y="345">...</tspan>
  </text>
  <text style="fill: #000000;text-anchor:start;font-size:12.7998;font-family:sanserif;font-style:normal;font-weight:normal" x="-34" y="440">
    <tspan x="-34" y="440">depth = 0</tspan>
  </text>
  <text style="fill: #000000;text-anchor:start;font-size:12.7998;font-family:sanserif;font-style:normal;font-weight:normal" x="-34" y="520">
    <tspan x="-34" y="520">depth = 1</tspan>
  </text>
  <text style="fill: #000000;text-anchor:start;font-size:12.7998;font-family:sanserif;font-style:normal;font-weight:normal" x="-34" y="620">
    <tspan x="-34" y="620">depth = 2</tspan>
  </text>
  <text style="fill: #000000;text-anchor:start;font-size:12.7998;font-family:sanserif;font-style:normal;font-weight:normal" x="-20" y="260">
    <tspan x="-20" y="260">all classes</tspan>
  </text>
  <text style="fill: #000000;text-anchor:start;font-size:12.7998;font-family:sanserif;font-style:normal;font-weight:normal" x="100" y="340">
    <tspan x="100" y="340">chosen classes</tspan>
  </text>
  <line style="fill: none; fill-opacity:0; stroke-width: 0.02; stroke-dasharray: 4; stroke: #000000" x1="760" y1="380" x2="760" y2="660"/>
  <text style="fill: #000000;text-anchor:start;font-size:22.6226;font-family:sanserif;font-style:normal;font-weight:normal" x="927" y="633">
    <tspan x="927" y="633">...</tspan>
  </text>
  <text style="fill: #000000;text-anchor:start;font-size:12.7998;font-family:sanserif;font-style:normal;font-weight:normal" x="800" y="420">
    <tspan x="800" y="420">next class tree</tspan>
  </text>
  <line style="fill: none; fill-opacity:0; stroke-width: 0.02; stroke-dasharray: 4; stroke: #000000" x1="946.936" y1="380.102" x2="-40" y2="380"/>
  <g>
    <rect style="fill: #f9d50e" x="860" y="500" width="57.05" height="28"/>
    <rect style="fill: none; fill-opacity:0; stroke-width: 2; stroke: #000000" x="860" y="500" width="57.05" height="28"/>
    <text style="fill: #000000;text-anchor:middle;font-size:16;font-family:sanserif;font-style:normal;font-weight:700" x="888.525" y="519">Class</text>
    <rect style="fill: #f9d50e" x="860" y="528" width="57.05" height="8"/>
    <rect style="fill: none; fill-opacity:0; stroke-width: 2; stroke: #000000" x="860" y="528" width="57.05" height="8"/>
    <rect style="fill: #f9d50e" x="860" y="536" width="57.05" height="8"/>
    <rect style="fill: none; fill-opacity:0; stroke-width: 2; stroke: #000000" x="860" y="536" width="57.05" height="8"/>
  </g>
  <g>
    <polyline style="fill: none; fill-opacity:0; stroke-width: 2; stroke: #000000" points="888.525,563.242 888.525,598.994 888.525,598.994 "/>
    <polygon style="fill: #ffffff" points="896.525,563.242 888.525,547.242 880.525,563.242 "/>
    <polygon style="fill: none; fill-opacity:0; stroke-width: 2; stroke: #000000" points="896.525,563.242 888.525,547.242 880.525,563.242 "/>
  </g>
  <g>
    <polyline style="fill: none; fill-opacity:0; stroke-width: 2; stroke: #000000" points="888.525,563.242 888.525,572 808.525,572 808.525,598.994 "/>
    <polygon style="fill: #ffffff" points="896.525,563.242 888.525,547.242 880.525,563.242 "/>
    <polygon style="fill: none; fill-opacity:0; stroke-width: 2; stroke: #000000" points="896.525,563.242 888.525,547.242 880.525,563.242 "/>
  </g>
  <line style="fill: none; fill-opacity:0; stroke-width: 2; stroke: #000000" x1="889" y1="572" x2="949" y2="572"/>
  <line style="fill: none; fill-opacity:0; stroke-width: 2; stroke: #000000" x1="888.525" y1="500" x2="888.311" y2="470.602"/>
  <line style="fill: none; fill-opacity:0; stroke-width: 2; stroke: #000000" x1="888.436" y1="471.602" x2="947.936" y2="471.102"/>
</svg>
